<?xml version="1.0" encoding="UTF-8"?>
<svg id="Capa_1" data-name="Capa 1" xmlns="http://www.w3.org/2000/svg" viewBox="0 0 515.92 310.14">
  <defs>
    <style>
      .cls-1 {
        fill: #d2f90a;
      }
    </style>
  </defs>
  <path class="cls-1" d="m.1,146.01C.1,106.65-.19,67.28.21,27.92.43,5.95,10.88.08,51.46.05c138.21-.12,276.42,0,414.62.31,39.29.09,49.2,5.35,49.29,26.64.3,72.92,1.61,145.86-1.32,218.76-1.04,26-22.35,49.37-70.91,60.24-47.64,10.66-86.04-.51-119.71-18.61-13.57-7.29-27.12-14.75-42.32-20.98-59.36-24.36-112.78-22.38-167.95,4.51-13.86,6.76-30.43,13.07-47.87,16.32-41.42,7.73-63.9-1.51-64.17-25.06-.44-38.72-.12-77.44-.12-116.16-.31,0-.61,0-.92,0Z"/>
</svg>