<?xml version="1.0" encoding="UTF-8"?>
<svg id="Capa_1" data-name="Capa 1" xmlns="http://www.w3.org/2000/svg" viewBox="0 0 503 493.29">
  <defs>
    <style>
      .cls-1 {
        fill: #fff;
      }

      .cls-2 {
        fill: #d2f90a;
      }
    </style>
  </defs>
  <path class="cls-2" d="m0,1.48s124.24-21.52,147.13,99.46c12.59,66.54,7.65,111.17,7.65,133.11,0,23.88,2.35,47.66,15.88,67.34,16.8,24.45,49.92,51.31,71.3,51.31h59.43c90.02,0,170.5,56.12,201.61,140.59h0S0,490.02,0,490.02V1.48Z"/>
  <path class="cls-1" d="m0,191.54s76.15-13.19,90.18,60.96c7.72,40.78,4.69,68.14,4.69,81.58,0,14.64,1.44,29.21,9.73,41.28,10.3,14.99,30.6,31.45,43.7,31.45h36.42c55.18,0,104.5,34.4,123.57,86.17h0S0,490.98,0,490.98V191.54Z"/>
</svg>