<?xml version="1.0" encoding="UTF-8"?>
<svg id="Capa_1" data-name="Capa 1" xmlns="http://www.w3.org/2000/svg" viewBox="0 0 910.74 558">
  <defs>
    <style>
      .cls-1 {
        font-family: Poppins-Bold, Poppins;
        font-size: 145px;
        font-weight: 700;
      }

      .cls-2 {
        fill: none;
        stroke: #000;
        stroke-width: 2px;
      }
    </style>
  </defs>
  <text class="cls-1" transform="translate(0 123.61)"><tspan x="0" y="0">PORTAFOLIO</tspan></text>
  <g>
    <g>
      <path class="cls-2" d="m82.5,515.41c-2.71,3.48-6.87,6.1-12.47,7.88-5.61,1.78-12.57,2.31-20.88,1.33-6.15-.73-9.22-1.11-15.37-1.91,0,11.03,0,22.07,0,33.1-9.92-.07-14.88-.11-24.79-.19v-101.42c13.29,4.91,26.62,9.4,40.17,13.53,8.12,2.38,14.98,5.41,20.59,9.11,5.61,3.7,9.81,7.75,12.62,12.26,2.8,4.51,4.21,9.21,4.21,14.21,0,4.63-1.36,8.62-4.06,12.1Zm-24.65-9.2c2.32-1.48,3.48-3.9,3.48-7.31s-1.16-6.29-3.48-8.7c-2.32-2.41-5.85-4.19-10.59-5.35-5.39-1.33-8.09-2.02-13.48-3.47v23.36c5.39,1.04,8.09,1.54,13.48,2.49,4.73.84,8.27.46,10.59-1.02Z"/>
      <path class="cls-2" d="m121.29,552.47c-7.97-3.11-14.31-7.65-19-13.69-4.69-6.05-7.03-13-7.03-20.54s2.34-14.1,7.03-19.43c4.69-5.33,11.02-8.99,19-11.14,7.97-2.15,16.75-2.57,26.32-1.49s18.34,3.47,26.32,7.19c7.98,3.72,14.26,8.37,18.85,13.97,4.59,5.6,6.89,11.62,6.89,18.03s-2.32,11.91-6.96,16.68c-4.64,4.78-10.92,8.39-18.85,11-7.93,2.61-16.67,3.97-26.25,3.95s-18.34-1.41-26.32-4.53Zm45.82-14.47c4.88-3.28,7.32-7.73,7.32-13.57s-2.44-10.86-7.32-14.87c-4.88-4.01-11.38-6.41-19.5-7.18-8.22-.78-14.77.37-19.65,3.67-4.88,3.3-7.32,8.28-7.32,14.76s2.44,11.65,7.32,15.58c4.88,3.93,11.43,5.92,19.65,6.18,8.12.26,14.62-1.28,19.5-4.57Z"/>
      <path class="cls-2" d="m265.35,556.52c-7.29-7.25-14.37-14.8-21.17-22.51-2.38,0-3.57,0-5.95-.02,0,9.51,0,14.01,0,22.52-9.92,0-14.88,0-24.79-.02,0-21.71,0-43.42,0-65.13,13.87.24,27.75.13,41.62-.29,8.02-.24,14.86.49,20.52,2.31,5.66,1.82,9.88,4.46,12.69,7.89,2.8,3.43,4.21,7.29,4.21,11.49,0,4.74-1.91,8.89-5.73,12.47-3.82,3.58-9.45,6.06-16.89,7.52,7.71,8.09,15.49,15.97,23.49,23.76-11.19,0-16.79,0-27.98,0Zm-27.12-33.64c6.15.02,9.22.01,15.37-.03,4.54-.03,7.95-.79,10.22-2.29,2.27-1.5,3.41-3.62,3.41-6.39s-1.14-4.72-3.41-6.22c-2.27-1.5-5.68-2.19-10.22-2.12-6.15.1-9.22.13-15.37.16,0,6.97,0,10.34,0,16.88Z"/>
      <path class="cls-2" d="m381.2,472.39v17.24c-10.79,2.17-16.18,3.23-26.97,5.29,0,20.44,0,40.88,0,61.32-9.92.06-14.88.09-24.79.14,0-18.96,0-37.91,0-56.87-10.79,1.93-16.18,3.48-26.97,4.05v-15.01c26.5-3.85,52.65-10.15,78.73-16.17Z"/>
      <path class="cls-2" d="m457.04,537.66c-12.66.76-25.33,1.52-37.99,2.27-2.44,6.55-3.65,9.75-6.09,15.96-10.38.06-15.57.1-25.96.16,13.8-30.72,25.6-62.17,36.83-93.9,9.57-2.35,19.14-4.72,28.71-7.1,13.19,33.14,25.51,66.54,36.83,100.36-10.5.07-15.75.1-26.25.17-2.44-7.3-3.65-10.88-6.09-17.92Zm-6.38-18.4c-4.1-11.43-8.31-22.83-12.61-34.18-4.03,12.37-8.17,24.71-12.47,36.99,10.03-1.12,15.05-1.68,25.08-2.8Z"/>
      <path class="cls-2" d="m566.8,427.77v23.52c-13.84,2.64-27.66,5.36-41.47,8.15,0,9.68,0,14.57,0,24.44,10.34-1.67,20.68-3.31,31.03-4.89,0,9.36,0,14.09,0,23.67-10.35,1.16-20.69,2.35-31.03,3.57,0,16.32,0,32.64,0,48.96-9.92.06-14.88.09-24.79.15,0-37.38,0-74.77,0-112.15,22.04-5.34,44.12-10.52,66.26-15.41Z"/>
      <path class="cls-2" d="m601.67,546.72c-7.47-5.89-15.51-15.8-18.99-24.72-4.58-11.69-7.03-22.19-7.03-34.23,0-12.12,2.19-23.59,7.03-34.6,4.14-9.4,10.97-19.02,19-26.26,6.39-5.77,17.56-10.26,26.32-10.67,9.43-.44,18.38,1.89,26.32,7.12,7.86,5.18,15.3,15.11,18.85,23.66,4.64,11.15,6.9,23.68,6.89,35.88-.01,12.63-1.89,26-6.96,37.16-4.41,9.7-10.4,19.46-18.85,26.47-6.52,5.41-17.77,9.64-26.25,9.64-8.48,0-19.69-4.23-26.32-9.45Zm45.82-34.25c5.81-8.87,7.32-19.98,7.32-29.53,0-9.22-1.33-20.19-7.32-28.6-4.89-6.86-11.38-10.15-19.5-9.81-8.22.35-14.81,4.07-19.65,11.11-5.32,7.73-7.31,20.19-7.32,28.98-.01,8.59,2.17,20.85,7.32,28.34,4.91,7.14,11.43,11.03,19.65,10.97,8.12-.06,14.6-3.99,19.5-11.47Z"/>
      <path class="cls-2" d="m718.61,527.72c10.83.17,21.65.38,32.48.62,0,10.51,0,15.8,0,26.48-19.09-.04-38.18-.07-57.27-.09,0-46.18,0-92.36,0-138.54,9.92.08,14.88.19,24.79.59,0,36.98,0,73.97,0,110.95Z"/>
      <path class="cls-2" d="m787.78,423.02c0,43.97,0,87.94,0,131.9-9.92-.04-14.88-.05-24.79-.08,0-44.97,0-89.94,0-134.91,9.92,1.04,14.88,1.65,24.79,3.09Z"/>
      <path class="cls-2" d="m827.58,548c-7.63-5.56-15.3-15.62-19-24.35-4.6-10.85-7.42-23.34-7.03-34.94.37-11.05,1.67-22.64,7.03-32.92,4.72-9.06,11.02-15.66,19-19.34,7.97-3.68,16.82-4.02,26.32-1.54,9.19,2.4,19.5,8.8,26.32,15.1,7.18,6.63,14.54,16.47,18.85,25.26,4.03,8.21,7,19.66,6.89,28.95-.12,9.87-2.32,18.54-6.96,26.29-4.64,7.75-10.92,14-18.85,18.68-7.93,4.68-16.87,7.1-26.25,7.26-8.5.14-19.52-3.49-26.32-8.44Zm45.82-25.94c4.88-5.54,7.32-12.96,7.32-22.65s-2.44-18.08-7.32-25.14c-4.88-7.06-11.38-11.72-19.5-13.51-8.22-1.81-14.77,0-19.65,5.54-4.88,5.54-7.07,14.27-7.32,25.17-.2,8.48,2.21,20,7.32,27.14,4.9,6.85,11.43,10.56,19.65,11.12,8.12.55,14.62-2.12,19.5-7.66Z"/>
    </g>
    <g>
      <path class="cls-2" d="m82.5,434.26c-2.71,3.26-6.87,5.3-12.47,6.04-5.61.73-12.57-.27-20.88-3.38-6.15-2.3-9.22-3.51-15.37-6.08v33.79c-9.92-3.19-14.88-4.91-24.79-8.63,0-33.83,0-67.66,0-101.49,13.1,8.48,26.33,16.24,40.17,23.45,8.12,4.05,14.98,8.5,20.59,13.28,5.61,4.78,9.81,9.67,12.62,14.89,2.8,5.21,4.21,10.45,4.21,15.82,0,4.97-1.36,9.06-4.06,12.32Zm-24.65-14.43c2.32-1.05,3.48-3.35,3.48-6.92s-1.16-6.81-3.48-9.77c-2.32-2.97-5.85-5.52-10.59-7.76-5.39-2.55-8.09-3.89-13.48-6.72v23.84c5.39,2.51,8.09,3.71,13.48,5.98,4.73,2,8.27,2.39,10.59,1.34Z"/>
      <path class="cls-2" d="m121.29,480.82c-7.97-4.64-14.31-10.68-19-18.04-4.69-7.37-7.03-15.28-7.03-23.45s2.34-14.93,7.03-20.22c4.69-5.29,11.02-8.73,19-10.61,7.97-1.89,16.75-2.75,26.32-1.37,9.57,1.38,18.34,4.79,26.32,9.03,7.98,4.24,14.26,9.59,18.85,16.19,4.59,6.6,6.89,13.85,6.89,21.66s-2.32,14.57-6.96,20.3c-4.64,5.74-10.92,9.9-18.85,12.54-7.93,2.64-16.67,3.49-26.25,2.44s-18.34-3.83-26.32-8.47Zm45.82-12.28c4.88-3.64,7.32-8.89,7.32-15.8s-2.44-12.88-7.32-17.63c-4.88-4.75-11.38-7.61-19.5-8.77-8.22-1.18-14.77-.23-19.65,3.12-4.88,3.35-7.32,8.64-7.32,15.87s2.44,13.28,7.32,18.25c4.88,4.97,11.43,7.97,19.65,8.99,8.12,1,14.62-.38,19.5-4.01Z"/>
      <path class="cls-2" d="m265.35,492.03c-7.21-9.39-14.26-18.91-21.17-28.53-2.38.1-3.57.15-5.95.23,0,9.66,0,19.32,0,28.98-9.92.11-14.88.1-24.79-.08,0-26.86,0-53.72,0-80.58,13.95-.54,27.77-1.94,41.62-3.61,8.02-1.06,14.86-.77,20.52.92,5.65,1.69,9.88,4.57,12.69,8.65,2.8,4.08,4.21,8.91,4.21,14.35,0,6.14-1.91,11.77-5.73,16.8-3.82,5.03-9.45,8.76-16.89,11.18,7.68,10.18,15.51,20.26,23.49,30.2-9.32.61-18.65,1.11-27.98,1.46Zm-27.12-42.35c6.15-.3,9.22-.5,15.37-.96,4.54-.34,7.95-1.56,10.22-3.67,2.27-2.1,3.41-4.92,3.41-8.45s-1.14-5.92-3.41-7.62c-2.27-1.7-5.68-2.27-10.22-1.8-6.15.64-9.22.91-15.37,1.37,0,8.66,0,12.89,0,21.12Z"/>
      <path class="cls-2" d="m381.2,378.92c0,8.04,0,11.77,0,19.47-8.96,2.76-17.95,5.42-26.97,7.97,0,24.56,0,49.11,0,73.67-9.92,2.17-14.88,3.22-24.79,5.25,0-24.06,0-48.12,0-72.19-10.79,2.78-16.18,4.31-26.97,6.3,0-7.54,0-11.26,0-19.29,26.56-6.04,52.68-13.25,78.73-21.18Z"/>
      <path class="cls-2" d="m457.04,437.75c-12.66,3.46-25.32,6.91-37.99,10.32-2.44,7.46-3.65,11.15-6.09,18.4-10.38,2.5-15.57,3.73-25.96,6.15,13.09-35.55,25.11-71.45,36.83-107.46,9.58-3.19,19.15-6.42,28.71-9.66,12.63,30.64,25.08,61.33,36.83,92.31-10.5,2.55-15.75,3.84-26.25,6.42-2.44-6.66-3.65-9.95-6.09-16.47Zm-6.38-17.23c-4.17-10.98-8.39-21.95-12.61-32.91-4.11,13.46-8.27,26.9-12.47,40.33,10.03-2.95,15.05-4.44,25.08-7.42Z"/>
      <path class="cls-2" d="m566.8,318.96c0,7.86,0,12.07,0,20.33-13.88,3.93-27.69,8.04-41.47,12.29,0,8.83,0,13.3,0,22.31,10.33-3.07,20.66-6.09,31.03-9.03,0,8.25,0,12.42,0,20.89-10.37,2.76-20.7,5.67-31.03,8.58,0,14.96,0,29.92,0,44.88-9.92,2.32-14.88,3.5-24.79,5.89,0-35.25,0-70.49,0-105.74,21.98-7.18,44.03-14.05,66.26-20.4Z"/>
      <path class="cls-2" d="m601.67,415.89c-7.97-3.76-14.27-9.87-19-17.78-4.68-7.83-7.08-19.56-7.03-28.41.05-9.58,2.78-21.93,7.03-30.6,4.14-8.43,11.68-17.99,19-23.88,6.92-5.57,17.43-10.7,26.32-12.25,9.46-1.65,18.34-1.22,26.32,2.52,7.98,3.73,14.22,10.1,18.85,18.69,5.2,9.64,6.88,20.91,6.89,30.96,0,10.69-2.24,22.59-6.96,32.91-3.86,8.43-11.42,18.25-18.85,23.84-6.79,5.11-17.63,9.27-26.25,9.62-9.41.38-18.34-1.87-26.32-5.63Zm45.82-33.22c4.88-6.84,7.32-15.6,7.32-26.01,0-10.52-2.44-18.52-7.32-23.97-4.88-5.45-11.38-7.45-19.5-6.16-8.22,1.31-14.77,5.33-19.65,11.84-4.88,6.51-7.32,15.03-7.32,25.08s2.44,17.16,7.32,22.83c4.88,5.67,11.43,8.26,19.65,7.59,8.12-.66,14.62-4.37,19.5-11.21Z"/>
      <path class="cls-2" d="m718.61,394.67c10.86.52,21.64,1.22,32.48,2.12v24.3c-19.09-1.45-38.13-2.3-57.27-2.61,0-40.84,0-81.69,0-122.53,9.92-.57,14.88-.71,24.79-.66,0,33.13,0,66.25,0,99.38Z"/>
      <path class="cls-2" d="m787.78,302.44c0,40.94,0,81.88,0,122.82-9.92-1.42-14.88-2.03-24.79-3.05,0-41.33,0-82.66,0-123.99,9.92,1.3,14.88,2.13,24.79,4.21Z"/>
      <path class="cls-2" d="m827.58,425.57c-8.21-7.37-14.84-17.08-19-26.57-4.74-10.82-7.05-22.11-7.03-33.93.01-9.76,1.57-20.86,7.03-30.07,4.71-7.95,11.02-13.38,19-15.7,7.97-2.32,16.81-.66,26.32,3.46,10.43,4.53,18.87,11.98,26.32,20.03,7.84,8.47,14.63,19.34,18.85,30.08,3.82,9.73,6.98,20.17,6.89,31.02-.08,9.9-2.32,17.73-6.96,23.89-4.64,6.15-10.92,10.23-18.85,12.39-7.93,2.15-16.77,1.97-26.25-.37-9.04-2.24-19.49-8.09-26.32-14.22Zm45.82-13.97c4.88-4.06,7.32-10.64,7.32-20.16s-2.44-18.45-7.32-26.58c-4.88-8.13-11.38-14.18-19.5-17.59-8.22-3.45-14.77-2.87-19.65,1.56-4.88,4.44-7.11,12.31-7.32,22.72-.17,8.63,2.5,19.95,7.32,27.29,4.91,7.48,11.43,12.53,19.65,15.09,8.12,2.53,14.62,1.72,19.5-2.34Z"/>
    </g>
    <g>
      <path class="cls-2" d="m82.5,333.69c-2.71,4.86-6.87,8.08-12.47,9.48-5.61,1.4-12.57.38-20.88-3.24-6.15-2.67-9.22-4.09-15.37-7.09,0,12.9,0,25.8,0,38.71-8.45-4.71-16.79-9.85-24.79-15.27v-102.08c13.29,4.85,26.62,9.29,40.17,13.37,8.12,2.35,14.98,5.73,20.59,10.43,5.61,4.7,9.81,10.29,12.62,16.82,2.8,6.52,4.21,13.59,4.21,21.11,0,6.95-1.36,12.91-4.06,17.76Zm-24.65-15.92c2.32-1.66,3.48-4.83,3.48-9.43s-1.16-8.56-3.48-11.82c-2.32-3.26-5.85-5.64-10.59-7.26-5.39-1.85-8.09-2.81-13.48-4.84v27.37c5.39,2.38,8.09,3.51,13.48,5.67,4.73,1.89,8.27,1.98,10.59.32Z"/>
      <path class="cls-2" d="m121.29,399.41c-7.96-7.35-14.83-17.1-19-26.59-4.7-10.71-6.39-21.19-7.03-33.52-.5-9.55,2.27-21.81,7.03-30.26,4.73-8.39,11.02-14.89,19-19.14,7.97-4.25,16.88-5.75,26.32-4.87,8.77.82,19.53,5.52,26.32,10.9,7.44,5.91,14.99,15.96,18.85,24.63,4.69,10.51,6.9,22.56,6.89,33.4,0,10.43-2.11,22.12-6.96,32.08-3.74,7.69-11.23,16.67-18.85,21.01-7.88,4.49-16.85,5.47-26.25,4.31-8.8-1.08-19.91-6.06-26.32-11.97Zm45.82-21.36c4.88-6.03,7.08-14.73,7.32-25.35.19-8.52-2.28-20.01-7.32-27.21-4.9-7.01-11.38-11.13-19.5-12.14-8.22-1.02-14.77,1.32-19.65,7.02-4.88,5.71-7.09,14.22-7.32,24.91-.19,8.57,2.38,19.98,7.32,27.25,4.91,7.21,11.43,11.74,19.65,12.92,8.12,1.16,14.62-1.37,19.5-7.41Z"/>
      <path class="cls-2" d="m265.35,408.75c-7.42-13.33-14.39-26.84-21.17-40.51-2.38.16-3.57.23-5.95.37,0,14.5,0,29,0,43.51-9.92.95-14.88,1.29-24.79,1.67,0-40.94,0-81.88,0-122.81,13.87.25,27.75.14,41.62-.27,8.02-.23,14.86,1.25,20.52,4.44,5.65,3.19,9.88,7.64,12.69,13.32,2.8,5.68,4.21,12.02,4.21,19.03,0,7.92-1.91,15.05-5.73,21.55-3.82,6.51-9.45,11.45-16.89,14.78,7.49,13.56,15.22,26.87,23.49,39.97-9.27,1.89-18.63,3.56-27.98,4.96Zm-27.12-60.94c6.15-.25,9.22-.42,15.37-.82,4.54-.3,7.95-1.87,10.22-4.67,2.27-2.8,3.41-6.6,3.41-11.46s-1.14-8.23-3.41-10.8c-2.27-2.57-5.68-3.76-10.22-3.57-6.15.26-9.22.36-15.37.5,0,10.27,0,20.54,0,30.82Z"/>
      <path class="cls-2" d="m381.2,272.23v22.08c-10.79,2.79-16.18,4.16-26.97,6.79,0,29.22,0,58.43,0,87.65-9.92,2.83-14.88,4.19-24.79,6.73,0-29.51,0-59.03,0-88.54-10.79,2.44-16.18,4.22-26.97,5.25v-23.93c26.5-3.81,52.65-10.06,78.73-16.03Z"/>
      <path class="cls-2" d="m457.04,337.78c-12.65,4.23-25.31,8.44-37.99,12.59-2.44,8.1-3.65,12.24-6.09,20.18-10.38,3.41-15.57,5.1-25.96,8.35,12.49-38.87,24.54-77.89,36.83-116.82,9.57-2.33,19.14-4.68,28.71-7.04,11.94,30.08,24.44,59.93,36.83,89.83-10.5,3.5-15.75,5.28-26.25,8.84-2.44-6.38-3.65-9.54-6.09-15.92Zm-6.38-17.09c-4.27-11.28-8.48-22.58-12.61-33.91-4.17,13.98-8.32,27.97-12.47,41.97,10.03-3.2,15.05-4.82,25.08-8.05Z"/>
      <path class="cls-2" d="m566.8,228c0,6.59,0,9.95,0,16.8-13.85,3.37-27.67,6.87-41.47,10.45,0,7.81,0,11.76,0,19.75,10.33-2.92,20.66-5.84,31.03-8.6,0,6.97,0,10.51,0,17.7-10.37,2.95-20.7,5.96-31.03,9.04,0,13.33,0,26.66,0,40-9.92,3.13-14.88,4.74-24.79,8.01,0-32.62,0-65.25,0-97.87,22.05-5.29,44.12-10.43,66.26-15.28Z"/>
      <path class="cls-2" d="m601.67,306.14c-7.97-2.52-14.31-6.95-19-13.31-4.69-6.36-7.03-14.1-7.03-23.11,0-9.01,2.34-17.47,7.03-25.32,4.69-7.85,11.02-14.29,19-19.42,7.97-5.13,16.75-7.16,26.32-7.71s18.34.71,26.32,3.71c7.98,3.01,14.26,7.44,18.85,13.37,4.59,5.93,6.89,12.81,6.89,20.83s-2.32,15.55-6.96,22.75c-4.64,7.19-11.01,13.33-18.85,18.5-7.49,4.94-17.43,9.24-26.25,10.81-9.49,1.69-18.34,1.43-26.32-1.09Zm45.82-30.43c4.88-5.32,7.32-11.65,7.32-19.03s-2.44-13.02-7.32-16.96c-4.88-3.94-11.38-5.63-19.5-4.97-8.22.67-14.77,3.42-19.65,8.43-4.88,5.02-7.32,12.17-7.32,20.29s2.44,13.89,7.32,18.06c4.88,4.17,11.43,5.49,19.65,4.18,8.12-1.3,14.62-4.67,19.5-10Z"/>
      <path class="cls-2" d="m718.61,280.75c10.9.33,21.61.93,32.48,1.84,0,6.23,0,7.23,0,16.16-19.18-1.48-38.05-1.75-57.27-.95,0-27.08,0-54.15,0-81.23,9.92.08,14.88.2,24.79.59,0,21.2,0,42.39,0,63.59Z"/>
      <path class="cls-2" d="m787.78,223.36c0,26.98,0,53.96,0,80.94-9.92-2.08-14.88-2.91-24.79-4.21,0-26.6,0-53.19,0-79.79,9.92,1.03,14.88,1.63,24.79,3.06Z"/>
      <path class="cls-2" d="m827.58,310.21c-7.07-5.66-14.38-13.62-19-21.48-4.59-7.82-7.03-15.65-7.03-23.63s2.34-14.54,7.03-19.81c4.69-5.27,11.02-8.84,19-10.64,7.97-1.8,16.84-1.48,26.32.88,8.99,2.24,19.36,7.81,26.32,13.74,7.33,6.24,14.75,16.13,18.85,24.82,4.01,8.51,6.99,20.22,6.89,29.8-.1,9.82-2.32,17.57-6.96,22.66-4.64,5.09-10.92,7.31-18.85,7.11-7.93-.2-16.7-2.43-26.25-6.65-9.25-4.09-18.49-10.54-26.32-16.8Zm45.82-2.34c4.88-2.65,7.32-8.15,7.32-16.42s-2.44-16.11-7.32-22.82c-4.88-6.72-11.38-11.3-19.5-13.82-8.22-2.55-14.77-2.1-19.65.95-4.88,3.05-7.32,8.29-7.32,15.83s2.44,14.19,7.32,20.42c4.88,6.23,11.43,10.99,19.65,14.44,8.12,3.41,14.62,4.08,19.5,1.42Z"/>
    </g>
    <g>
      <path class="cls-2" d="m82.5,214.66c-2.71,5.61-6.87,9.79-12.47,12.42-5.61,2.64-12.57,3.09-20.88,1.43-6.15-1.23-9.22-1.88-15.37-3.24v39.53c-9.92-3.25-14.88-5-24.79-8.8,0-34.05,0-68.11,0-102.16,13.39.13,26.78.25,40.17.36,8.12.06,14.98,1.75,20.59,5.24,5.6,3.49,9.81,8.37,12.62,14.59,2.8,6.21,4.21,13.35,4.21,21.23,0,7.29-1.36,13.8-4.06,19.41Zm-24.65-11.11c2.32-2.28,3.48-5.84,3.48-10.6s-1.16-8.57-3.48-11.34c-2.32-2.77-5.85-4.28-10.59-4.62-5.39-.38-8.09-.58-13.48-1v27.85c5.39.87,8.09,1.28,13.48,2.07,4.73.7,8.27-.08,10.59-2.37Z"/>
      <path class="cls-2" d="m121.29,278.59c-8.23-7.1-14.88-16.72-19-26.07-4.81-10.92-7.04-22.31-7.03-34.31,0-10.79,2.17-22.8,7.03-33.17,3.91-8.34,11.58-18.01,19-23.48,6.77-4.99,17.91-8.8,26.32-8.81,8.47,0,19.73,4.07,26.32,9.39,8.5,6.86,14.48,16.54,18.85,26.17,5.04,11.1,6.88,24.44,6.89,37.01.01,12.16-2.28,24.64-6.96,35.72-3.56,8.42-10.99,18.24-18.85,23.25-7.89,5.03-16.8,7.08-26.25,6.16-8.91-.87-19.7-6.14-26.32-11.85Zm45.82-26.1c5.35-7.36,7.86-19.31,7.32-28.11-.62-10.13-1.48-20.63-7.32-29.45-4.9-7.4-11.38-11.31-19.5-11.57-8.22-.26-14.76,3.16-19.65,9.82-5.29,7.2-7.34,19.25-7.32,27.59.02,8.63,2.22,20.77,7.32,28.35,4.9,7.29,11.43,11.59,19.65,12.37,8.12.77,14.61-2.28,19.5-9.01Z"/>
      <path class="cls-2" d="m265.35,292.61c-7.25-16.41-14.29-32.91-21.17-49.48-2.38,0-3.57,0-5.95,0,0,16.74,0,33.47,0,50.21-9.92.12-14.88.11-24.79-.06,0-46.13,0-92.26,0-138.38,13.87.02,27.74.03,41.62.03,8.02,0,14.86,2.04,20.52,6.07,5.66,4.03,9.88,9.53,12.69,16.41,2.8,6.88,4.21,14.47,4.21,22.72,0,9.32-1.91,17.53-5.73,24.75-3.82,7.22-9.45,12.36-16.89,15.46,7.59,17.04,15.39,33.96,23.49,50.76-9.32.64-18.65,1.15-27.98,1.52Zm-27.12-73.23c6.15.03,9.22.03,15.37,0,4.54-.02,7.95-1.55,10.22-4.61,2.27-3.06,3.41-7.38,3.41-13s-1.14-9.61-3.41-12.73c-2.27-3.11-5.68-4.68-10.22-4.68-6.15,0-9.22,0-15.37-.03v35.06Z"/>
      <path class="cls-2" d="m381.2,154.4c0,9.81,0,14.66,0,24.29-10.79.68-16.18,1.02-26.97,1.68,0,33.34,0,66.68,0,100.02-9.92,2.2-14.88,3.27-24.79,5.32,0-34.62,0-69.25,0-103.87-10.79.62-16.18,1.17-26.97,1.27,0-9.4,0-18.8,0-28.2,26.25-.11,52.49-.32,78.73-.51Z"/>
      <path class="cls-2" d="m457.04,237.73c-12.66,2.76-25.32,5.51-37.99,8.22-2.44,8.23-3.65,12.38-6.09,20.68-10.38,2.53-15.57,3.79-25.96,6.24,12-39.69,24.05-79.35,36.83-118.79,9.57-.07,19.14-.15,28.71-.22,11.46,31.61,23.84,62.82,36.83,93.83-10.5,2.59-15.75,3.9-26.25,6.51-2.44-6.52-3.65-9.81-6.09-16.48Zm-6.38-18.02c-4.33-12.22-8.54-24.48-12.61-36.78-4.22,13.73-8.37,27.48-12.47,41.25,10.03-1.78,15.05-2.67,25.08-4.46Z"/>
      <path class="cls-2" d="m566.8,153.01c0,5.32,0,8.05,0,13.63-13.83.83-27.65,1.7-41.47,2.58,0,6.96,0,10.49,0,17.63,10.34-1.23,20.68-2.44,31.03-3.61,0,5.86,0,8.84,0,14.92-10.35,1.59-20.69,3.24-31.03,4.93,0,11.96,0,23.93,0,35.89-9.92,2.35-14.88,3.55-24.79,5.98,0-30.49,0-60.97,0-91.46,22.09-.17,44.18-.33,66.26-.48Z"/>
      <path class="cls-2" d="m601.67,217.83c-7.97-1.95-14.31-5.61-19-10.91-4.69-5.31-7.03-11.8-7.03-19.1,0-7.29,2.34-13.89,7.03-19.51,4.69-5.62,11.02-9.73,18.99-12.5,7.97-2.77,16.75-3.88,26.32-3.89s18.34,1.2,26.32,3.7c7.98,2.5,14.26,6.03,18.85,10.75,4.59,4.73,6.89,10.22,6.89,16.58,0,6.37-2.32,12.32-6.96,17.81-4.64,5.5-10.92,10.02-18.85,13.51-7.93,3.5-16.67,5.62-26.25,6.21s-18.34-.72-26.32-2.67Zm45.82-20.42c4.88-3.84,7.32-8.67,7.32-14.41s-2.44-10.2-7.32-13.43c-4.88-3.23-11.38-4.78-19.5-4.73-8.22.06-14.77,1.69-19.65,5.08-4.88,3.39-7.32,8.55-7.32,14.76s2.44,10.56,7.32,14.18c4.88,3.62,11.43,5.24,19.65,4.89,8.12-.34,14.62-2.49,19.5-6.33Z"/>
      <path class="cls-2" d="m718.61,205c10.85.49,21.65,1.1,32.48,1.85v13.61c-19.09-1.47-38.12-2.32-57.27-2.62,0-21.7,0-43.41,0-65.11,9.92.01,14.88.02,24.79.04,0,17.41,0,34.82,0,52.22Z"/>
      <path class="cls-2" d="m787.78,152.99c0,23.9,0,47.81,0,71.71-9.92-1.44-14.88-2.06-24.79-3.1,0-22.9,0-45.81,0-68.71,9.92.03,14.88.05,24.79.1Z"/>
      <path class="cls-2" d="m827.58,227.37c-7.86-5.23-14.31-11.12-19-17.84-4.69-6.72-7.03-13.56-7.03-20.78,0-7.22,2.34-13.37,7.03-18.81,4.69-5.44,11.02-9.69,19-12.86,7.97-3.17,16.75-4.92,26.32-4.9s18.34,1.87,26.32,6.09c7.98,4.22,14.22,10.53,18.85,18.53,4.41,7.62,7.02,18.69,6.89,27.42-.15,9.77-2.32,18.33-6.96,24.75-4.64,6.42-10.92,10.3-18.85,11.93-7.93,1.63-16.74.76-26.25-1.74-8.88-2.33-18.67-6.71-26.32-11.8Zm45.82-10.09c4.88-3.71,7.32-9.76,7.32-17.86s-2.44-15.09-7.32-20.33c-4.88-5.24-11.38-7.96-19.5-8.51-8.22-.56-14.77,1.19-19.65,4.93-4.88,3.75-7.32,8.97-7.32,15.98s2.44,12.85,7.32,17.98c4.88,5.13,11.43,8.65,19.65,10.46,8.12,1.79,14.62,1.06,19.5-2.65Z"/>
    </g>
  </g>
</svg>